<svg width="28" height="28" viewBox="0 0 28 28" fill="none" xmlns="http://www.w3.org/2000/svg">
<circle cx="14" cy="14" r="14" fill="white"/>
<g clip-path="url(#clip0_3_3106)">
<path d="M8.88786 13.5688C8.88786 13.1591 9.22014 12.8262 9.6291 12.8262H9.6323L10.8677 12.8305C11.2777 12.8305 11.61 13.1634 11.61 13.5742V18.2538C11.7495 18.2122 11.9274 18.1684 12.1233 18.1226C12.4023 18.0564 12.6004 17.8067 12.6004 17.5197V11.7156C12.6004 11.3048 12.9327 10.9719 13.3427 10.9719H14.5813C14.9914 10.9719 15.3236 11.3048 15.3236 11.7156V17.1026C15.3236 17.1026 15.6335 16.9767 15.9349 16.8497C16.1639 16.7526 16.313 16.5275 16.313 16.2789V9.85694C16.313 9.44617 16.6453 9.11328 17.0553 9.11328H18.2928C18.7029 9.11328 19.0351 9.44617 19.0351 9.85694V15.1447C20.1076 14.3658 21.196 13.4291 22.0587 12.3024C22.3132 11.9706 22.3845 11.532 22.2482 11.1362C20.6646 6.56542 15.6836 4.14987 11.1233 5.73748C6.56298 7.32509 4.15183 12.3162 5.73654 16.8849C5.91546 17.4002 6.14231 17.8974 6.41282 18.3711C6.62794 18.7435 7.0401 18.9569 7.46716 18.9185C7.70146 18.8982 7.9922 18.8683 8.33939 18.8278C8.65144 18.7915 8.8868 18.5269 8.8868 18.2132V13.5688" fill="black"/>
<path d="M8.86249 21.0728C12.7678 23.9194 18.2366 23.0541 21.0769 19.1427C22.1643 17.6447 22.75 15.8405 22.75 13.9883C22.75 13.7866 22.7404 13.5871 22.7277 13.3887C19.5327 18.1622 13.6337 20.3942 8.86249 21.0739" fill="#1E1E1E"/>
</g>
<defs>
<clipPath id="clip0_3_3106">
<rect width="17.5" height="17.5" fill="white" transform="translate(5.25 5.25)"/>
</clipPath>
</defs>
</svg>
