<svg width="28" height="28" viewBox="0 0 28 28" fill="none" xmlns="http://www.w3.org/2000/svg">
<circle cx="14" cy="14" r="14" fill="white"/>
<g clip-path="url(#clip0_3_3105)">
<path fill-rule="evenodd" clip-rule="evenodd" d="M12.0567 6.78985C11.0177 7.31478 10.1678 7.75903 10.168 7.77712C10.1685 7.82372 12.6614 9.04843 12.7499 9.04545C12.7901 9.04416 13.0821 8.91376 13.3987 8.75578L13.9744 8.46856L14.6032 8.78207L15.2319 9.09564L16.2616 8.64685C17.813 7.97059 17.9741 7.89648 17.9489 7.87162C17.9154 7.83856 17.359 7.54862 15.8492 6.77759C15.1195 6.40494 14.4113 6.03961 14.2754 5.96564C14.1393 5.89159 14.0096 5.83212 13.9869 5.83327C13.9642 5.83442 13.0956 6.26485 12.0566 6.78978L12.0567 6.78985ZM7.49995 9.07864L6.41848 9.62057V11.9988C6.41848 13.3068 6.43265 14.377 6.45011 14.377C6.46757 14.377 6.99958 14.1532 7.6325 13.8798L8.78333 13.3825V10.8758L9.34572 11.1729C9.77905 11.4018 10.2127 11.6301 10.6465 11.8579L11.385 12.2458L11.7136 12.1016C11.9197 12.011 12.1253 11.9197 12.3306 11.8273C12.4892 11.7557 12.8785 11.5856 13.1958 11.4493C13.513 11.3129 13.8067 11.1757 13.8483 11.1445C13.9036 11.103 13.2291 10.7414 11.3536 9.80713C9.93981 9.10289 8.73772 8.52891 8.68228 8.53169C8.62683 8.53447 8.09482 8.78051 7.49995 9.07857V9.07864ZM18.1437 9.23079C17.4071 9.55331 16.804 9.8301 16.8033 9.84588C16.8026 9.86167 17.2041 10.0932 17.6954 10.3604C18.1867 10.6276 18.5888 10.8605 18.5888 10.8781C18.5888 10.8956 18.154 11.0999 17.6227 11.3323C17.0912 11.5646 15.7481 12.153 14.6377 12.6398L10.9174 14.271C9.9815 14.6814 9.13795 15.0513 9.04277 15.0931C7.13122 15.9325 6.60585 16.1654 6.53371 16.2053C6.46115 16.2456 6.44474 16.4794 6.43182 17.6531L6.41638 19.053L7.38354 19.531L8.35062 20.009L9.69168 19.4219C10.4293 19.0991 11.0327 18.818 11.0327 18.7973C11.0327 18.7765 10.8964 18.6905 10.7299 18.6058C10.5634 18.521 10.2194 18.3335 9.96565 18.1889C9.71186 18.0443 9.45885 17.9116 9.40326 17.894C9.34774 17.8765 9.30312 17.8458 9.30402 17.8257C9.30493 17.8057 9.89546 17.5337 10.6162 17.2211C12.0162 16.6139 13.0875 16.1459 15.3876 15.1371C16.416 14.686 17.4447 14.2353 18.4734 13.7847C19.3775 13.3888 20.4287 12.9266 20.8094 12.7574L21.5015 12.4497L21.5169 11.0339L21.5323 9.6182L20.5514 9.12985C20.0119 8.86126 19.5508 8.64218 19.5266 8.64299C19.5024 8.64374 18.8801 8.90827 18.1436 9.23085L18.1437 9.23079ZM21.2388 14.3384C21.0943 14.4069 20.8088 14.5352 20.6044 14.6234C20.4 14.7116 20.0121 14.8813 19.7424 15.0007L19.2521 15.2176L19.241 16.4605C19.2348 17.1441 19.2088 17.7004 19.1833 17.6968C19.1252 17.6884 18.2063 17.2313 17.2827 16.7512C16.616 16.4047 16.5741 16.391 16.4175 16.4662C16.3269 16.5098 15.7856 16.7452 15.2146 16.9896C14.6435 17.2339 14.1578 17.4498 14.1348 17.4693C14.1121 17.4888 15.2613 18.093 16.6888 18.8121L19.2842 20.1195L20.3929 19.5631C21.0026 19.2572 21.5211 18.9781 21.545 18.943C21.5988 18.8641 21.5942 14.203 21.5403 14.2093C21.519 14.2118 21.3833 14.2699 21.2388 14.3384L21.2388 14.3384ZM15.0992 19.8093C14.9069 19.8895 14.7146 19.9699 14.5224 20.0503C13.942 20.2939 14.0557 20.302 13.3652 19.9685C12.9052 19.7465 12.707 19.6779 12.6209 19.7112C12.5564 19.7361 12.0009 19.9786 11.3864 20.2499C10.7719 20.5213 10.2479 20.7433 10.2218 20.7433C9.96397 20.7433 10.3926 20.9917 12.0465 21.8009L13.9861 22.7499L14.8022 22.3591C15.251 22.1442 16.1564 21.7137 16.8141 21.4026C17.4717 21.0914 18.0017 20.8287 17.9918 20.8188C17.9818 20.8089 17.4307 20.5344 16.7672 20.2089L15.5606 19.6169L15.0992 19.8095V19.8093Z" fill="black"/>
</g>
<defs>
<clipPath id="clip0_3_3105">
<rect width="15.1667" height="16.9167" fill="white" transform="translate(6.41669 5.83331)"/>
</clipPath>
</defs>
</svg>
