<svg width="28" height="28" viewBox="0 0 28 28" fill="none" xmlns="http://www.w3.org/2000/svg">
<circle cx="14" cy="14" r="14" fill="white"/>
<g clip-path="url(#clip0_3_3090)">
<path d="M6.72759 13.5015L15.4146 9.86596C16.2724 9.48701 19.1803 8.27478 19.1803 8.27478C19.1803 8.27478 20.523 7.74403 20.4112 9.03269C20.3735 9.56345 20.0758 11.4189 19.7769 13.4262L18.8449 19.3726C18.8449 19.3726 18.7707 20.2441 18.1365 20.3948C17.5022 20.5455 16.4584 19.8641 16.2724 19.7134C16.123 19.5998 13.4764 17.895 12.5067 17.0618C12.2455 16.8346 11.9477 16.3803 12.5444 15.8495C13.887 14.5991 15.4898 13.0472 16.4595 12.0622C16.9067 11.6078 17.3539 10.5474 15.4898 11.835L10.2331 15.4334C10.2331 15.4334 9.63651 15.8124 8.51852 15.4717C7.40053 15.1309 6.09549 14.6766 6.09549 14.6766C6.09549 14.6766 5.2011 14.1087 6.72974 13.5026L6.72759 13.5015Z" fill="black"/>
</g>
<defs>
<clipPath id="clip0_3_3090">
<rect width="14.5833" height="12.25" fill="white" transform="translate(5.83331 8.16669)"/>
</clipPath>
</defs>
</svg>
