<svg width="251" height="44" viewBox="0 0 251 44" fill="none" xmlns="http://www.w3.org/2000/svg">
<mask id="mask0_3_3163" style="mask-type:luminance" maskUnits="userSpaceOnUse" x="0" y="0" width="251" height="44">
<path d="M250.345 0H0V44H250.345V0Z" fill="white"/>
</mask>
<g mask="url(#mask0_3_3163)">
<path d="M37.9336 26.1623C37.1927 26.615 36.3253 26.6984 35.6679 26.3267C34.8435 25.8311 34.3479 24.7184 34.3479 23.1936V18.5357C34.3479 16.3104 33.483 14.7021 31.9987 14.2899C29.4851 13.549 27.5886 16.6391 26.8881 17.7922L22.4375 24.9232V16.1435C22.3971 14.123 21.7371 12.9295 20.5005 12.5577C19.6762 12.3099 18.4396 12.4338 17.2435 14.2469L7.31063 30.1577C5.99063 27.6442 5.29017 24.8398 5.29017 21.9975C5.29017 12.3934 12.9978 4.60233 22.4375 4.60233C31.8773 4.60233 39.5849 12.3934 39.5849 21.9975V22.081C39.6683 23.9345 39.0893 25.4189 37.9362 26.1623H37.9336ZM43.3755 22V21.9166C43.335 10.2515 33.9357 0.730835 22.4375 0.730835C10.9394 0.730835 1.49707 10.2541 1.49707 22C1.49707 33.746 10.8939 43.2692 22.435 43.2692C27.7529 43.2692 32.7801 41.2488 36.6541 37.5821C37.438 36.8412 37.4785 35.6451 36.7375 34.8612C36.0371 34.0773 34.841 34.0368 34.0596 34.7373L34.0191 34.7777C30.886 37.7465 26.6833 39.4357 22.3541 39.4357C17.284 39.4357 12.7499 37.2104 9.61684 33.6651L18.561 19.3221V25.9575C18.561 29.1311 19.7975 30.1628 20.8267 30.4511C21.8559 30.7393 23.4237 30.5345 25.1129 27.8541L30.0187 19.8987C30.183 19.6508 30.307 19.403 30.4713 19.2387V23.277C30.4713 26.2458 31.6674 28.6354 33.7283 29.7885C35.5819 30.8607 37.9336 30.7368 39.8706 29.5407C42.2603 27.9754 43.5398 25.2545 43.3729 21.9975L43.3755 22ZM72.5571 14.7451C73.0527 15.0334 73.5053 15.7338 73.5053 16.3534C73.5053 17.3421 72.681 18.1665 71.7327 18.1665C71.4849 18.1665 71.2801 18.083 71.0727 18.0426C69.9601 17.2182 68.5591 16.6821 67.0748 16.6821C63.5725 16.6821 61.1803 19.5269 61.1803 23.0697C61.1803 26.6124 63.6129 29.4168 67.0748 29.4168C68.807 29.4168 70.3722 28.7164 71.5253 27.6037C71.8136 27.3989 72.1853 27.275 72.5545 27.275C73.5028 27.275 74.2437 28.0159 74.2437 28.9642C74.2437 29.5812 73.872 30.1173 73.4194 30.4055C71.7302 31.8469 69.4619 32.7952 67.1127 32.7952C61.7543 32.7952 57.3847 28.3851 57.3847 22.9433C57.3847 17.5014 61.7543 13.0913 67.1127 13.0913C69.0902 13.0508 70.9867 13.6678 72.5545 14.74L72.5571 14.7451ZM82.366 18.8669C86.0352 18.8669 89.0849 21.957 89.0849 25.7906C89.0849 29.6242 85.9948 32.8382 82.366 32.8382C78.5325 32.8382 75.3589 29.6242 75.3589 25.7906C75.3589 21.957 78.5325 18.8669 82.366 18.8669ZM82.3256 29.4193C83.9339 29.4193 85.2943 27.8945 85.2943 25.8336C85.2943 23.7727 83.9339 22.4527 82.3256 22.4527C80.5934 22.4527 79.152 23.7297 79.152 25.8336C79.152 27.9375 80.5934 29.4193 82.3256 29.4193ZM91.3936 30.6964V20.9683C91.3936 19.8961 92.218 19.0313 93.2902 19.0313C94.3624 19.0313 95.1867 19.8961 95.1867 20.9683V30.6964C95.1867 31.7685 94.3219 32.6334 93.2902 32.6334C92.2585 32.6334 91.3936 31.7255 91.3936 30.6964ZM91.1053 15.3621C91.1053 14.0851 92.0941 13.0964 93.2902 13.0964C94.4863 13.0964 95.5155 14.1255 95.5155 15.3621C95.5155 16.5987 94.5267 17.5874 93.2902 17.5874C92.0536 17.5469 91.1053 16.5582 91.1053 15.3621ZM102.439 25.4189V30.6938C102.439 31.766 101.574 32.6308 100.543 32.6308C99.5109 32.6308 98.646 31.766 98.646 30.6938V20.5131C98.646 19.6888 99.306 19.0288 100.13 19.0288C100.955 19.0288 101.572 19.7292 101.572 20.5131C103.097 19.0718 104.457 18.8644 105.734 18.8644C109.527 18.8644 111.216 21.7092 111.216 24.9637V30.6938C111.216 31.766 110.352 32.6308 109.32 32.6308C108.288 32.6308 107.423 31.766 107.423 30.6938V25.4189C107.423 23.7701 107.218 22.3692 104.826 22.3692C103.137 22.3692 102.437 23.7701 102.437 25.4189H102.439ZM123.501 27.4393C123.048 27.4393 122.76 27.2345 122.512 26.9437L118.102 22.1619V30.6938C118.102 31.766 117.237 32.6308 116.206 32.6308C115.174 32.6308 114.309 31.766 114.309 30.6938V13.7968C114.433 13.5085 114.721 13.3012 115.009 13.3012C115.338 13.3012 115.626 13.5895 115.834 13.7968L122.881 21.7118C123.086 21.9596 123.334 22.0835 123.498 22.0835C123.622 22.0835 123.911 21.9596 124.115 21.7118L131.163 13.7968C131.368 13.592 131.616 13.3012 131.987 13.3012C132.316 13.3012 132.604 13.506 132.688 13.7968V30.6964C132.688 31.7685 131.863 32.6334 130.791 32.6334C129.719 32.6334 128.895 31.7685 128.895 30.6964V22.1644L124.485 26.9462C124.156 27.2345 123.868 27.4419 123.496 27.4419L123.501 27.4393ZM141.721 29.4168C143.41 29.4168 144.854 27.892 144.854 25.8311C144.854 23.7701 143.369 22.4097 141.721 22.4097C140.072 22.4097 138.711 23.8106 138.711 25.8311C138.711 27.8515 140.031 29.4168 141.721 29.4168ZM145.759 31.149L145.675 30.6964C144.935 32.1377 142.585 32.7977 141.101 32.7977C137.556 32.7977 134.918 29.5837 134.918 25.7501C134.918 21.9166 137.596 18.8265 141.306 18.8265C141.923 18.8265 144.067 18.9908 145.716 20.9278L145.799 20.4752C145.799 19.6508 146.416 18.9908 147.241 18.9908C148.065 18.9908 148.725 19.6913 148.725 20.4752V31.1085C148.725 31.9329 148.065 32.5929 147.241 32.5929C146.376 32.6334 145.756 31.9329 145.756 31.1515L145.759 31.149ZM159.154 22.3692H158.741C156.352 22.4931 155.897 23.8536 155.897 25.4189V30.6938C155.897 31.766 155.032 32.6308 154 32.6308C152.968 32.6308 152.104 31.766 152.104 30.6938V20.5131C152.104 19.6888 152.764 19.0288 153.588 19.0288C154.412 19.0288 155.029 19.7292 155.029 20.5131C156.43 19.1931 157.586 18.9049 158.739 18.8644H159.111C160.018 18.8644 160.843 19.6483 160.843 20.637C160.883 21.5449 160.059 22.3692 159.154 22.3692ZM173.785 29.7885C173.949 30.0768 174.073 30.3651 174.073 30.6964C174.073 31.6851 173.165 32.5929 172.177 32.5929C171.517 32.5929 170.94 32.0973 170.487 31.5207L166.118 26.4506V30.6559C166.118 31.7281 165.253 32.5929 164.221 32.5929C163.189 32.5929 162.325 31.7281 162.325 30.6559V15.2003C162.325 14.1281 163.149 13.2632 164.221 13.2632C165.293 13.2632 166.118 14.1281 166.118 15.2003V24.8449L170.487 20.0226C170.94 19.5269 171.476 18.9934 172.136 18.9934C173.084 18.9934 173.949 19.8582 173.949 20.8469C173.949 21.1352 173.866 21.4639 173.701 21.7118L170.24 25.5049L173.785 29.7911V29.7885ZM181.204 22.4097C180.175 22.4097 178.483 22.9458 178.483 24.5541H183.966C183.925 22.9458 182.193 22.4097 181.204 22.4097ZM186.15 26.9842H178.483C178.483 29.2499 180.668 29.6216 181.616 29.6216C182.317 29.6216 183.306 29.4977 184.089 29.126C184.337 28.9616 184.707 28.8377 185.078 28.8377C185.903 28.8377 186.603 29.5382 186.603 30.403C186.603 30.9796 186.231 31.4752 185.779 31.7635C184.626 32.6283 183.101 32.8357 181.657 32.8357C177.823 32.8357 174.65 30.7747 174.65 25.9524C174.65 22.1593 176.587 18.8619 181.121 18.8619C184.79 18.8619 187.551 21.2515 187.632 25.4973C187.632 26.2812 186.972 26.9816 186.148 26.9816L186.15 26.9842ZM196.703 32.7952H195.674C192.788 32.7952 191.099 31.5182 191.099 27.0246V22.3667H190.11C189.203 22.3667 188.421 21.5423 188.421 20.6345C188.421 19.6458 189.246 18.8619 190.11 18.8619H191.099V15.2761C191.099 14.2039 191.924 13.3391 192.996 13.3391C194.068 13.3391 194.892 14.2039 194.892 15.2761V18.8619H196.458C197.365 18.8619 198.147 19.6458 198.147 20.6345C198.147 21.5423 197.322 22.3667 196.458 22.3667H194.892V26.2812C194.892 28.8782 195.016 29.4143 196.169 29.4143H196.705C197.613 29.4143 198.395 30.1552 198.395 31.1035C198.395 32.0518 197.611 32.7927 196.705 32.7927L196.703 32.7952ZM215.044 14.7426C215.539 15.0308 215.992 15.7313 215.992 16.3508C215.992 17.3396 215.168 18.1639 214.219 18.1639C213.972 18.1639 213.767 18.0805 213.559 18.04C212.447 17.2157 211.046 16.6796 209.561 16.6796C206.059 16.6796 203.667 19.5244 203.667 23.0672C203.667 26.6099 206.1 29.4143 209.561 29.4143C211.294 29.4143 212.859 28.7138 214.012 27.6012C214.3 27.3964 214.672 27.2724 215.041 27.2724C215.989 27.2724 216.73 28.0134 216.73 28.9616C216.73 29.5787 216.359 30.1147 215.906 30.403C214.217 31.8444 211.949 32.7927 209.599 32.7927C204.241 32.7927 199.871 28.3826 199.871 22.9407C199.871 17.4989 204.241 13.0888 209.599 13.0888C211.577 13.0483 213.514 13.6653 215.041 14.7375L215.044 14.7426ZM224.648 29.4168C226.337 29.4168 227.781 27.892 227.781 25.8311C227.781 23.7701 226.297 22.4097 224.648 22.4097C222.999 22.4097 221.639 23.8106 221.639 25.8311C221.639 27.8515 222.999 29.4168 224.648 29.4168ZM228.686 31.149L228.603 30.6964C227.862 32.1377 225.513 32.7977 224.028 32.7977C220.483 32.7977 217.846 29.5837 217.846 25.7501C217.846 21.9166 220.524 18.8265 224.233 18.8265C224.85 18.8265 226.995 18.9908 228.643 20.9278L228.727 20.4752C228.727 19.6508 229.344 18.9908 230.168 18.9908C230.992 18.9908 231.652 19.6913 231.652 20.4752V31.1085C231.652 31.9329 230.992 32.5929 230.168 32.5929C229.303 32.6334 228.684 31.9329 228.684 31.1515L228.686 31.149ZM242 29.4168C243.689 29.4168 245.009 27.8085 245.009 25.8311C245.009 23.8536 243.649 22.4097 242 22.4097C240.351 22.4097 238.867 23.7701 238.867 25.8311C238.867 27.892 240.308 29.4168 242 29.4168ZM238.867 31.6826V36.5049C238.867 37.577 238.002 38.4419 236.97 38.4419C235.939 38.4419 235.074 37.577 235.074 36.5049V20.5131C235.074 19.6888 235.734 19.0288 236.558 19.0288C237.383 19.0288 238 19.7292 238 20.6775C239.401 19.2361 241.133 18.8644 242.45 18.8644C246.119 18.8644 248.838 21.9545 248.838 25.7881C248.838 29.6216 246.241 32.8357 242.655 32.8357C241.542 32.7952 239.894 32.4639 238.862 31.6826H238.867Z" fill="white"/>
</g>
</svg>
