<svg width="28" height="28" viewBox="0 0 28 28" fill="none" xmlns="http://www.w3.org/2000/svg">
<circle cx="14" cy="14" r="14" fill="white"/>
<g clip-path="url(#clip0_3_3104)">
<path d="M11.3702 20.9999C17.3137 20.9999 20.5642 15.8388 20.5642 11.3633C20.5642 11.2165 20.5615 11.0704 20.5548 10.9257C21.1855 10.4473 21.7344 9.85089 22.1667 9.17229C21.5876 9.44204 20.9643 9.62328 20.3109 9.70547C20.9777 9.28609 21.4904 8.62295 21.7317 7.83196C21.1071 8.21973 20.4161 8.50213 19.6802 8.65386C19.0904 7.99564 18.2506 7.58398 17.3217 7.58398C15.5369 7.58398 14.09 9.10064 14.09 10.9706C14.09 11.2362 14.1181 11.4947 14.1737 11.7427C11.4882 11.6015 9.10692 10.2534 7.51316 8.20427C7.23569 8.70444 7.07551 9.28609 7.07551 9.90638C7.07551 11.0816 7.64586 12.1185 8.51378 12.7254C7.98365 12.7086 7.48568 12.5554 7.05004 12.3018C7.04937 12.3159 7.04937 12.3299 7.04937 12.3447C7.04937 13.985 8.16326 15.3548 9.64175 15.6653C9.37032 15.7426 9.08481 15.7847 8.78991 15.7847C8.58148 15.7847 8.37907 15.763 8.1827 15.7236C8.59421 17.0689 9.78719 18.0481 11.2013 18.0762C10.0955 18.9845 8.70211 19.5261 7.1881 19.5261C6.92739 19.5261 6.67003 19.5107 6.41736 19.4791C7.84759 20.4394 9.54524 21.0007 11.3709 21.0007" fill="black"/>
</g>
<defs>
<clipPath id="clip0_3_3104">
<rect width="15.75" height="13.4167" fill="white" transform="translate(6.41669 7.58331)"/>
</clipPath>
</defs>
</svg>
