<svg width="181" height="44" viewBox="0 0 181 44" fill="none" xmlns="http://www.w3.org/2000/svg">
<g clip-path="url(#clip0_3_3144)">
<mask id="mask0_3_3144" style="mask-type:luminance" maskUnits="userSpaceOnUse" x="0" y="0" width="181" height="44">
<path d="M180.059 0H0V44H180.059V0Z" fill="white"/>
</mask>
<g mask="url(#mask0_3_3144)">
<path d="M125.733 15.141C121.643 15.6492 118.626 17.9723 117.517 21.4394C116.754 23.797 116.847 26.0391 117.806 28.3156C118.938 31.0086 121.377 32.9267 124.612 33.655C125.548 33.8743 127.964 33.8858 128.935 33.7009C132.691 32.9611 135.314 30.6265 136.4 27.0906C136.654 26.247 136.689 25.9925 136.689 24.4901C136.689 22.9877 136.654 22.7332 136.4 21.8895C135.326 18.3995 132.795 16.1 129.177 15.3374C128.426 15.1868 126.368 15.0714 125.733 15.141H125.733ZM128.021 19.7292C129.373 20.0876 130.656 20.9657 131.246 21.9943C132.159 23.5425 132.124 25.5882 131.176 27.0677C129.477 29.737 125.594 30.1764 123.26 27.9572C121.318 26.1078 121.249 23.1726 123.098 21.1735C124.334 19.856 126.299 19.2898 128.021 19.7292H128.021Z" fill="white"/>
<path d="M145.726 15.141C141.635 15.6492 138.619 17.9723 137.51 21.4394C136.747 23.797 136.839 26.0391 137.798 28.3156C138.931 31.0086 141.37 32.9267 144.605 33.655C145.541 33.8743 147.957 33.8858 148.927 33.7009C152.683 32.9611 155.307 30.6265 156.393 27.0906C156.647 26.247 156.682 25.9925 156.682 24.4901C156.682 22.9877 156.647 22.7332 156.393 21.8895C155.318 18.3995 152.787 16.1 149.17 15.3374C148.418 15.1868 146.361 15.0714 145.725 15.141H145.726ZM148.026 19.7292C149.389 20.0876 150.661 20.9657 151.25 21.9943C152.163 23.5425 152.128 25.5882 151.18 27.0677C149.481 29.737 145.599 30.1764 143.264 27.9572C141.322 26.1078 141.253 23.1726 143.102 21.1735C144.327 19.856 146.292 19.2898 148.025 19.7292H148.026Z" fill="white"/>
<path d="M172.653 15.1991C170.273 15.546 168.481 17.0714 167.904 19.2669C167.349 21.3355 167.742 23.45 168.851 24.4786C169.51 25.0907 170.296 25.4491 172.457 26.143C174.548 26.8132 175.022 27.1021 175.242 27.8075C175.485 28.6168 174.884 29.5873 173.971 29.8418C173.475 29.98 172.539 29.98 171.914 29.8303C171.233 29.6683 170.008 29.0676 169.487 28.6168C169.256 28.3975 168.99 28.2354 168.944 28.2354C168.897 28.2354 168.632 28.6282 168.378 29.1135C168.019 29.7951 167.904 29.9457 167.881 29.7607L167.846 29.53H162.288V15.524H157.688V33.4824H167.835V32.9857C167.835 32.7197 167.858 32.5004 167.881 32.5004C167.904 32.5004 168.32 32.6968 168.806 32.9161C170.308 33.6207 171.267 33.8293 173.128 33.8293C174.989 33.8293 175.797 33.6673 176.918 33.1248C177.808 32.6968 179.01 31.507 179.414 30.6748C180.211 29.0104 180.327 26.769 179.657 25.3476C179.542 25.0817 179.149 24.5621 178.779 24.2037C177.993 23.4181 177.15 22.9901 174.989 22.297C174.133 22.0311 173.278 21.7078 173.082 21.5925C172.389 21.1645 172.25 20.2292 172.793 19.6392C173.741 18.622 175.428 18.7145 177.185 19.8822L177.532 20.1015L178.468 18.3103C178.965 17.3398 179.381 16.519 179.358 16.5076C179.254 16.4036 177.948 15.8832 177.208 15.6524C175.647 15.1672 174.007 14.9937 172.655 15.2015L172.653 15.1991Z" fill="white"/>
<path d="M43.4517 21.9477V33.7811H47.6349C49.9343 33.7811 52.3385 33.7115 52.962 33.6428C58.128 33.007 61.9412 29.8754 63.1662 25.2757C63.5705 23.7504 63.6629 21.0688 63.3741 19.4739C62.7849 16.3767 61.1786 13.8809 58.7049 12.1935C57.5952 11.4309 56.6018 11.0152 55.007 10.5757C53.7591 10.2402 53.5627 10.2402 48.5931 10.1715L43.4624 10.1134V21.9468H43.4509L43.4517 21.9477ZM52.5815 14.9446C55.8285 15.6377 57.9897 18.3537 57.9897 21.7513C57.9782 24.0049 57.2851 25.9459 55.9906 27.229C54.7075 28.5235 52.8008 29.1471 50.143 29.1585H48.8836V14.7589H50.2821C51.0448 14.7589 52.0734 14.8514 52.5815 14.9438V14.9446Z" fill="white"/>
<path d="M65.3282 21.9591V33.7811L75.2901 33.7696H85.2398L87.8052 30.1642C89.2266 28.1995 90.4172 26.5817 90.4516 26.5817C90.5097 26.5817 91.6995 28.1995 93.1094 30.1871L95.6863 33.7925H98.9218C100.69 33.7925 102.146 33.7467 102.146 33.7115C102.146 33.6657 100.239 31.007 97.939 27.8059L93.7322 21.9812L97.7541 16.3644C99.9733 13.29 101.903 10.6436 102.03 10.4939C102.284 10.2394 102.284 10.2746 102.284 12.6436V15.0469H107.184V33.7917H113.032V15.0469L115.886 15.024L118.729 14.9782L117.203 12.5748L115.678 10.1715L105.693 10.16H95.6969L93.1315 13.7655C91.7101 15.7302 90.5195 17.348 90.4851 17.3709C90.4393 17.3709 89.2487 15.7531 87.8388 13.7655L85.2619 10.16H65.3502V21.9591H65.3273H65.3282ZM82.9052 16.042C85.1932 19.2088 87.0655 21.8666 87.0655 21.9476C87.0655 22.0287 85.1932 24.7094 82.8938 27.8991L78.7106 33.7009L78.6648 31.4358L78.6419 29.1708H70.76V23.8666H77.1395V19.3823H70.76V14.7597H78.6419V12.5176C78.6419 11.2811 78.6648 10.2754 78.7 10.2754C78.7344 10.2754 80.6181 12.876 82.9069 16.042H82.9052Z" fill="white"/>
<path fill-rule="evenodd" clip-rule="evenodd" d="M14.2384 2.47945C11.6199 3.84601 9.46773 4.99981 9.47592 5.04891C9.47592 5.17166 15.7686 8.35484 15.9896 8.34666C16.0878 8.34666 16.8242 8.00298 17.6262 7.59383L19.0828 6.84917L20.6703 7.66747L22.2578 8.48577L24.86 7.3156C28.7714 5.55626 29.1806 5.35987 29.1151 5.30259C29.0333 5.21257 27.6258 4.45974 23.8125 2.4549C21.9714 1.48931 20.1875 0.531895 19.8438 0.343686C19.5001 0.147294 19.1728 0 19.1155 0C19.0582 0 16.857 1.11289 14.2384 2.47945ZM2.74131 8.43667L0.008183 9.84415V16.0305C0.008183 19.4346 0.040915 22.2168 0.090013 22.2168C0.130928 22.2168 1.47294 21.6359 3.07681 20.9239L5.98177 19.631V13.1092L7.39743 13.8784C8.49396 14.4757 9.58229 15.0649 10.6788 15.6623L12.5445 16.6688L13.371 16.2924C13.8947 16.055 14.4103 15.8177 14.9258 15.5804C15.3268 15.3922 16.3087 14.9503 17.1107 14.5985C17.9126 14.2466 18.6491 13.8866 18.7554 13.8047C18.8945 13.6983 17.1925 12.7573 12.4627 10.3269C8.89492 8.49396 5.85903 7.00465 5.71992 7.01283C5.58081 7.02102 4.23879 7.65929 2.74131 8.43667ZM29.5979 8.82946C27.7404 9.67231 26.2183 10.3924 26.2183 10.4333C26.2183 10.4742 27.233 11.0798 28.4687 11.7753C29.7125 12.4709 30.719 13.0764 30.719 13.1255C30.719 13.1746 29.6225 13.7065 28.2805 14.3039C26.9384 14.9094 23.5507 16.4396 20.7439 17.708L11.358 21.955C8.99312 23.0188 6.86554 23.9844 6.62823 24.0908C1.80844 26.2756 0.474614 26.8812 0.294588 26.9875C0.114562 27.0939 0.073647 27.6995 0.040915 30.7517L0 34.3932L2.43853 35.637L4.87707 36.8808L8.26483 35.3506C10.1224 34.5077 11.6526 33.7794 11.6526 33.7222C11.6526 33.6649 11.3089 33.4439 10.8916 33.223C10.4742 33.002 9.60684 32.5111 8.96039 32.1346C8.32211 31.7582 7.68384 31.4145 7.54473 31.3654C7.40562 31.3163 7.29105 31.2427 7.29105 31.1854C7.29105 31.1363 8.78036 30.4244 10.6052 29.6143C14.1402 28.035 16.8406 26.8157 22.6424 24.189C25.2364 23.0188 27.8304 21.8404 30.4326 20.6703C32.7156 19.6392 35.3669 18.4363 36.3243 17.9944L38.0673 17.1925L38.1082 13.5101L38.1492 9.82778L35.6779 8.5676C34.3195 7.87205 33.1493 7.29924 33.0921 7.29924C33.0266 7.29924 31.4555 7.99479 29.5979 8.82946ZM37.4127 22.1187C37.0444 22.2987 36.3243 22.6342 35.8088 22.8633C35.2933 23.0924 34.3113 23.5343 33.6321 23.8453L32.3965 24.4099L32.372 27.6422C32.3556 29.4179 32.2901 30.8663 32.2247 30.8581C32.0774 30.8336 29.7616 29.647 27.4294 28.395C25.7437 27.4949 25.6373 27.454 25.2446 27.6504C25.0154 27.7649 23.6489 28.3787 22.2087 29.0087C20.7685 29.647 19.541 30.2035 19.4837 30.2607C19.4264 30.3098 22.3232 31.881 25.9319 33.7549L32.4783 37.159L35.2769 35.7106C36.8153 34.9169 38.1246 34.1886 38.1819 34.0986C38.321 33.894 38.3046 21.7668 38.1737 21.7832C38.1164 21.7913 37.7727 21.9386 37.4127 22.1187ZM21.9141 36.3489C21.4313 36.5535 20.9403 36.7662 20.4575 36.979C18.9927 37.6091 19.2792 37.6336 17.5362 36.7662C16.3742 36.1852 15.875 36.0134 15.6541 36.0952C15.4904 36.1607 14.0911 36.7908 12.5364 37.4945C10.9898 38.1983 9.66412 38.7792 9.59866 38.7792C8.94402 38.7792 10.0324 39.4257 14.2057 41.5287L19.0991 44L21.1612 42.9853C22.2905 42.4289 24.5817 41.3078 26.2347 40.4977C27.8959 39.6876 29.2297 39.0084 29.2051 38.9756C29.1806 38.9511 27.7895 38.2392 26.112 37.3881L23.0679 35.8497L21.9141 36.3489Z" fill="white"/>
</g>
</g>
<defs>
<clipPath id="clip0_3_3144">
<rect width="180.093" height="44" fill="white"/>
</clipPath>
</defs>
</svg>
